<svg width="140" height="100" viewBox="0 0 140 100" fill="none" xmlns="http://www.w3.org/2000/svg">
<g clip-path="url(#clip0)">
<g filter="url(#filter0_bd)">
<rect width="140" height="100" rx="10" fill="url(#paint0_linear)"/>
<rect x="0.5" y="0.5" width="139" height="99" rx="9.5" stroke="#565656" stroke-opacity="0.3"/>
</g>
<path d="M46.3545 65.94C48.1345 66.66 48.8145 67.4 48.8145 68.74C48.8145 70.24 47.8545 71.2 46.3545 71.4V65.94ZM45.6345 63.86C44.0745 63.28 43.2345 62.48 43.2345 61.08C43.2345 59.58 44.2345 58.7 45.6345 58.54V63.86ZM46.3745 64.14V58.5C46.7945 58.52 47.2345 58.58 47.6945 58.74L48.0345 60.18C48.2345 61.1 48.7145 61.36 49.1545 61.36C49.5545 61.36 49.8745 61.18 49.9945 60.74C49.8145 58.98 48.3345 57.78 46.3745 57.64V55.62H45.6345V57.64C43.4145 57.78 41.7945 59.34 41.7945 61.46C41.7945 63.54 43.0745 64.7 45.2945 65.54L45.6145 65.66V71.44C45.0145 71.42 44.4345 71.34 43.8145 71.14L43.4945 69.74C43.2945 68.78 42.8545 68.52 42.3945 68.52C41.9345 68.52 41.6745 68.76 41.4945 69.16C41.6945 71.02 43.3145 72.26 45.6145 72.28V74.5H46.3545V72.24C48.7345 72.02 50.2745 70.54 50.2745 68.4C50.2745 66.68 49.4345 65.26 46.4945 64.18L46.3745 64.14ZM54.8958 58.1C55.3758 57.98 55.7958 57.94 56.1958 57.94C57.9558 57.94 58.9558 58.96 58.9558 60.78C58.9558 62.72 57.6758 63.84 55.6758 63.84H54.8158V64.74H55.8358C58.1958 64.74 59.3558 66.04 59.3558 68.08C59.3558 70.06 58.1358 71.48 55.9758 71.48C55.5158 71.48 55.0358 71.42 54.5358 71.26L54.1558 70.02C53.8958 69.14 53.6758 68.74 53.0758 68.74C52.6558 68.74 52.3358 68.96 52.1358 69.36C52.5758 71.4 54.1558 72.28 56.2158 72.28C59.0358 72.28 60.9758 70.54 60.9758 68.16C60.9758 66.16 59.8358 64.72 57.5158 64.3C59.4358 63.7 60.5158 62.34 60.5158 60.68C60.5158 58.54 58.9558 57.12 56.4958 57.12C54.5958 57.12 52.9358 57.98 52.4958 59.82C52.6758 60.34 53.0158 60.52 53.4358 60.52C54.0758 60.52 54.3158 60.16 54.5158 59.34L54.8958 58.1ZM65.157 58.9H71.397V57.42H64.377L63.917 64.2L64.477 64.32C65.157 64.08 65.937 63.98 66.657 63.98C68.757 63.98 70.157 65.26 70.157 67.66C70.157 69.98 68.917 71.48 66.677 71.48C66.137 71.48 65.677 71.4 65.177 71.26L64.777 69.96C64.517 69.02 64.277 68.74 63.717 68.74C63.277 68.74 62.937 68.96 62.777 69.4C63.237 71.32 64.657 72.28 66.777 72.28C69.797 72.28 71.757 70.3 71.757 67.48C71.757 64.56 69.877 62.92 67.117 62.92C66.297 62.92 65.577 63.04 64.857 63.28L65.157 58.9ZM76.1583 72.72C75.7183 74.36 74.6583 75.4 73.1783 76.2L73.4383 76.78C75.3783 75.96 77.2183 73.96 77.2183 71.56C77.2183 71.04 77.1383 70.64 76.9983 70.14C76.5383 69.72 76.1783 69.58 75.7983 69.58C75.0583 69.58 74.6783 70.14 74.6783 70.78C74.6783 71.24 74.8983 71.72 75.3983 72.14L76.1583 72.72ZM81.8617 64.58C81.8617 59.4 83.2417 57.94 84.6817 57.94C86.0817 57.94 87.4417 59.4 87.4417 64.58C87.4417 70 86.0817 71.48 84.6817 71.48C83.2417 71.48 81.8617 70.02 81.8617 64.58ZM84.6817 57.12C82.4017 57.12 80.2017 59.16 80.2017 64.58C80.2017 70.24 82.4017 72.28 84.6817 72.28C86.9417 72.28 89.1017 70.24 89.1017 64.58C89.1017 59.16 86.9417 57.12 84.6817 57.12ZM92.643 64.58C92.643 59.4 94.023 57.94 95.463 57.94C96.863 57.94 98.223 59.4 98.223 64.58C98.223 70 96.863 71.48 95.463 71.48C94.023 71.48 92.643 70.02 92.643 64.58ZM95.463 57.12C93.183 57.12 90.983 59.16 90.983 64.58C90.983 70.24 93.183 72.28 95.463 72.28C97.723 72.28 99.883 70.24 99.883 64.58C99.883 59.16 97.723 57.12 95.463 57.12ZM103.424 64.58C103.424 59.4 104.804 57.94 106.244 57.94C107.644 57.94 109.004 59.4 109.004 64.58C109.004 70 107.644 71.48 106.244 71.48C104.804 71.48 103.424 70.02 103.424 64.58ZM106.244 57.12C103.964 57.12 101.764 59.16 101.764 64.58C101.764 70.24 103.964 72.28 106.244 72.28C108.504 72.28 110.664 70.24 110.664 64.58C110.664 59.16 108.504 57.12 106.244 57.12Z" fill="#CA851E"/>
<path d="M22.9591 39.344C22.9111 37.776 22.9111 36.144 22.9111 34.272H24.0311C26.5271 34.272 27.6151 35.168 27.6151 36.832C27.6151 38.448 26.4791 39.344 24.2551 39.344H22.9591ZM24.2551 28.992C26.2071 28.992 27.1031 29.648 27.1031 31.2C27.1031 32.832 26.0951 33.632 23.9191 33.632H22.9111C22.9111 32.032 22.9111 30.496 22.9591 28.992H24.2551ZM19.8711 28.336V28.896L21.5351 29.072C21.5831 30.608 21.5831 32.176 21.5831 33.712V34.592C21.5831 36.16 21.5831 37.712 21.5351 39.248L19.8711 39.424V40H24.5751C27.7431 40 29.0391 38.448 29.0391 36.832C29.0391 35.376 28.0471 34.224 25.7111 33.92C27.6471 33.504 28.4471 32.4 28.4471 31.152C28.4471 29.472 27.1191 28.336 24.6871 28.336H19.8711ZM38.3562 29.04L38.8042 31.376H39.6042L39.4442 28.336H29.9722L29.8442 31.376H30.6442L31.0922 29.04H34.0202C34.0522 30.576 34.0522 32.16 34.0522 33.728V34.608C34.0522 36.176 34.0522 37.728 34.0202 39.248L32.1642 39.424V40H37.2682V39.424L35.4282 39.248C35.3802 37.712 35.3802 36.144 35.3802 34.608V33.728C35.3802 32.128 35.3802 30.56 35.4282 29.04H38.3562ZM49.2123 36.864L48.8283 39.04C48.1083 39.392 47.3563 39.536 46.6203 39.536C44.0763 39.536 42.2683 37.616 42.2683 34.16C42.2683 30.736 44.1883 28.784 46.7323 28.784C47.3723 28.784 48.0123 28.928 48.6683 29.28L49.0523 31.44H49.9323L49.8683 28.928C48.7323 28.256 47.5963 28.064 46.5563 28.064C43.1803 28.064 40.7003 30.624 40.7003 34.16C40.7003 37.744 43.0683 40.256 46.5563 40.256C47.7883 40.256 48.9403 40.016 50.0283 39.392L50.0763 36.864H49.2123ZM50.9152 42.784H51.7312L56.3872 27.648H55.5552L50.9152 42.784ZM68.4617 28.336H64.3017V28.896L66.1897 29.12L66.2057 34.912C66.2057 38.048 65.1817 39.232 63.0537 39.232C61.2137 39.232 60.0457 38.224 60.0457 35.216V33.744C60.0457 32.16 60.0457 30.608 60.0617 29.088L61.8697 28.896V28.336H57.1657V28.896L58.6537 29.056C58.6857 30.608 58.6857 32.176 58.6857 33.744V35.6C58.6857 38.864 60.3657 40.256 62.8457 40.256C65.2777 40.256 66.9097 38.816 66.9097 35.36L66.9417 29.088L68.4617 28.896V28.336ZM73.0767 33.216C71.7967 32.72 71.0447 32.032 71.0447 30.864C71.0447 29.488 72.1167 28.784 73.5727 28.784C74.1647 28.784 74.6287 28.896 75.1087 29.184L75.4927 31.216H76.3407L76.4207 28.976C75.6527 28.416 74.7887 28.064 73.6047 28.064C71.4927 28.064 69.8287 29.2 69.8287 31.2C69.8287 32.88 70.9647 33.888 72.7567 34.608L73.4127 34.864C75.0767 35.536 75.7487 36.112 75.7487 37.264C75.7487 38.752 74.5807 39.536 72.8367 39.536C72.0207 39.536 71.4767 39.392 70.8687 39.04L70.4847 36.928H69.6687L69.5887 39.328C70.3567 39.824 71.6047 40.256 72.9167 40.256C75.2527 40.256 76.9647 39.024 76.9647 36.992C76.9647 35.376 76.1327 34.416 73.7647 33.472L73.0767 33.216ZM81.5216 39.344C81.4736 37.76 81.4736 36.144 81.4736 34.336V33.76C81.4736 32.128 81.4736 30.528 81.5216 28.992H83.1536C85.9376 28.992 87.5056 30.8 87.5056 34.176C87.5056 37.408 85.9376 39.344 82.9776 39.344H81.5216ZM78.4336 28.336V28.896L80.0976 29.072C80.1456 30.608 80.1456 32.176 80.1456 33.76V34.336C80.1456 36.144 80.1456 37.728 80.0976 39.248L78.4336 39.424V40H83.1216C86.5936 40 89.0416 37.872 89.0416 34.176C89.0416 30.4 86.8016 28.336 83.4096 28.336H78.4336Z" fill="#CA851E"/>
<path d="M96.3523 38.208L100.424 32.344L100.208 32.168L96.1283 38.032L96.3523 38.208ZM95.6723 34.048C95.6723 32.8 95.9923 32.504 96.3123 32.504C96.6483 32.504 96.9523 32.808 96.9523 34.048C96.9523 35.296 96.6483 35.6 96.3123 35.6C95.9923 35.6 95.6723 35.296 95.6723 34.048ZM96.3123 32.248C95.7123 32.248 95.1203 32.776 95.1203 34.048C95.1203 35.328 95.7123 35.856 96.3123 35.856C96.9123 35.856 97.4963 35.328 97.4963 34.048C97.4963 32.776 96.9123 32.248 96.3123 32.248ZM99.5123 36.28C99.5123 35.024 99.8403 34.728 100.16 34.728C100.488 34.728 100.792 35.032 100.792 36.28C100.792 37.52 100.488 37.824 100.16 37.824C99.8403 37.824 99.5123 37.52 99.5123 36.28ZM100.16 34.48C99.5603 34.48 98.9683 35 98.9683 36.28C98.9683 37.56 99.5603 38.08 100.16 38.08C100.76 38.08 101.344 37.56 101.344 36.28C101.344 35 100.76 34.48 100.16 34.48ZM104.541 37.592C104.533 37.112 104.525 36.64 104.525 36.168V33.424L104.557 32.176L104.437 32.088L102.709 32.536V32.824L103.909 32.688V36.168C103.909 36.64 103.901 37.112 103.893 37.592L102.629 37.744V38H105.789V37.744L104.541 37.592ZM107.221 37.4C107.661 36.92 108.077 36.48 108.301 36.232C109.557 34.872 109.965 34.312 109.965 33.576C109.965 32.672 109.461 32.048 108.381 32.048C107.549 32.048 106.805 32.472 106.669 33.312C106.757 33.464 106.877 33.56 107.053 33.56C107.261 33.56 107.381 33.408 107.477 33.064L107.677 32.448C107.869 32.392 108.053 32.376 108.205 32.376C108.893 32.376 109.309 32.88 109.309 33.616C109.309 34.296 108.933 34.944 108.077 35.936C107.693 36.384 107.205 36.96 106.701 37.52V38H110.229V37.4H107.221ZM111.894 38.104C112.198 38.104 112.422 37.864 112.422 37.576C112.422 37.28 112.198 37.032 111.894 37.032C111.59 37.032 111.366 37.28 111.366 37.576C111.366 37.864 111.59 38.104 111.894 38.104ZM113.863 35.68L115.839 32.84V35.68H113.863ZM117.383 35.68H116.439V32.08H116.023L113.431 35.76V36.128H115.839V38H116.439V36.128H117.383V35.68Z" fill="#D31818"/>
</g>
<defs>
<filter id="filter0_bd" x="-20" y="-4" width="180" height="144" filterUnits="userSpaceOnUse" color-interpolation-filters="sRGB">
<feFlood flood-opacity="0" result="BackgroundImageFix"/>
<feGaussianBlur in="BackgroundImage" stdDeviation="2"/>
<feComposite in2="SourceAlpha" operator="in" result="effect1_backgroundBlur"/>
<feColorMatrix in="SourceAlpha" type="matrix" values="0 0 0 0 0 0 0 0 0 0 0 0 0 0 0 0 0 0 127 0"/>
<feOffset dy="20"/>
<feGaussianBlur stdDeviation="10"/>
<feColorMatrix type="matrix" values="0 0 0 0 0 0 0 0 0 0 0 0 0 0 0 0 0 0 0.05 0"/>
<feBlend mode="normal" in2="effect1_backgroundBlur" result="effect2_dropShadow"/>
<feBlend mode="normal" in="SourceGraphic" in2="effect2_dropShadow" result="shape"/>
</filter>
<linearGradient id="paint0_linear" x1="51.9512" y1="2.36137e-06" x2="101.293" y2="91.5469" gradientUnits="userSpaceOnUse">
<stop stop-color="#050505" stop-opacity="0.6"/>
<stop offset="1" stop-color="#131313" stop-opacity="0.8"/>
</linearGradient>
<clipPath id="clip0">
<rect width="140" height="100" rx="10" fill="white"/>
</clipPath>
</defs>
</svg>
