<svg width="176" height="50" viewBox="0 0 176 50" fill="none" xmlns="http://www.w3.org/2000/svg">
<g filter="url(#filter0_bd)">
<rect x="20" y="16.0001" width="136" height="34" rx="10" fill="#CA851E"/>
<path d="M51.0701 36.8161L50.5581 39.2801H46.3341C46.2861 37.7601 46.2861 36.2241 46.2861 34.9281V33.8081C46.2861 32.1761 46.2861 30.6081 46.3341 29.0721L47.9981 28.8961V28.3361H43.2461V28.8961L44.9101 29.0721C44.9581 30.5921 44.9581 32.1441 44.9581 33.7281V34.6241C44.9581 36.1601 44.9581 37.7121 44.9101 39.2481L43.2461 39.4241V40.0001H51.7741L51.9181 36.8161H51.0701ZM54.7764 35.1841C54.9684 33.1521 56.1364 32.1921 57.3044 32.1921C58.5364 32.1921 59.3844 33.2001 59.3844 34.3201C59.3844 34.8321 59.2244 35.1841 58.5204 35.1841H54.7764ZM60.4724 35.8081C60.5524 35.5681 60.5844 35.2321 60.5844 34.8161C60.5844 32.8161 59.2404 31.5521 57.3844 31.5521C55.2724 31.5521 53.4644 33.2641 53.4644 35.9361C53.4644 38.6721 55.0804 40.2241 57.3204 40.2241C58.8084 40.2241 59.9124 39.4881 60.5684 38.3361L60.2324 38.0801C59.6084 38.8321 58.8564 39.3281 57.7204 39.3281C56.0244 39.3281 54.7764 38.1601 54.7604 35.7921L60.4724 35.8081ZM67.0803 38.1761C66.0563 38.9921 65.5923 39.2801 64.9203 39.2801C64.0563 39.2801 63.4483 38.8481 63.4483 37.8881C63.4483 37.2481 63.7363 36.5761 65.2883 35.9841C65.7203 35.8081 66.4243 35.5841 67.0803 35.4081V38.1761ZM69.7043 39.0561C69.4643 39.3121 69.2723 39.4401 68.9843 39.4401C68.5523 39.4401 68.2963 39.1521 68.2963 38.2241V34.4321C68.2963 32.3521 67.4323 31.5521 65.6563 31.5521C63.9603 31.5521 62.7123 32.3361 62.3763 33.6481C62.4083 34.0321 62.6803 34.2561 63.0803 34.2561C63.4963 34.2561 63.7363 34.0161 63.8643 33.5521L64.2163 32.3681C64.6323 32.2241 65.0003 32.1921 65.3363 32.1921C66.5523 32.1921 67.0803 32.6241 67.0803 34.3841V34.8961C66.3443 35.0561 65.5763 35.2801 64.9523 35.4721C62.7763 36.2561 62.1523 37.0401 62.1523 38.1121C62.1523 39.4881 63.1763 40.2241 64.4563 40.2241C65.4963 40.2241 66.1363 39.7601 67.1123 38.7681C67.2563 39.6481 67.7683 40.1921 68.5843 40.1921C69.1443 40.1921 69.5923 39.9681 69.9763 39.3921L69.7043 39.0561ZM73.2379 31.7281L73.0139 31.5681L70.7099 32.4161V32.9281L72.1339 33.0401C72.1659 33.7921 72.1979 34.4481 72.1979 35.4721V36.3521C72.1979 37.1681 72.1819 38.4001 72.1499 39.2961L70.8379 39.4881V40.0001H74.9179V39.4881L73.4459 39.2801C73.4299 38.3841 73.4139 37.1681 73.4139 36.3521V34.8961C73.8139 33.7921 74.3259 33.0561 75.0779 32.5601L75.3019 32.7521C75.6219 33.0241 75.9259 33.2161 76.3259 33.2161C76.9499 33.2161 77.2219 32.8161 77.2219 32.1281C77.0459 31.7761 76.5179 31.5521 76.0059 31.5521C74.9979 31.5521 73.9739 32.4161 73.3979 33.8241L73.2379 31.7281ZM86.0716 39.2801C86.0396 38.4001 86.0236 37.1841 86.0236 36.3521V34.6881C86.0236 32.4321 85.2876 31.5521 83.8316 31.5521C82.7596 31.5521 81.5596 32.1761 80.6316 33.2001L80.5036 31.7281L80.2796 31.5681L77.9756 32.4161V32.9281L79.3996 33.0401C79.4316 33.7921 79.4636 34.4641 79.4636 35.4721V36.3521C79.4636 37.1681 79.4476 38.4001 79.4156 39.2961L78.0716 39.4881V40.0001H81.9756V39.4881L80.7116 39.2801C80.6956 38.4001 80.6796 37.1681 80.6796 36.3521V33.8241C81.7036 32.8801 82.5196 32.5441 83.3036 32.5441C84.3276 32.5441 84.8076 33.0881 84.8076 34.7521V36.3521C84.8076 37.1841 84.7916 38.4161 84.7756 39.2961L83.4156 39.4881V40.0001H87.3356V39.4881L86.0716 39.2801ZM106.84 28.8961V28.3361H103.672L99.7358 38.2561L95.6558 28.3361H92.6798V28.8961L94.2958 29.0881L94.2798 39.2321L92.7278 39.4241V40.0001H96.5838V39.4241L95.0318 39.2321V33.5521C95.0318 33.5361 94.9838 31.4241 94.9518 29.9041L99.1438 40.0001H99.7998L103.832 29.8401L103.816 34.6561C103.8 36.1761 103.816 37.7281 103.784 39.2641L102.216 39.4241V40.0001H106.84V39.4241L105.176 39.2641C105.144 37.7121 105.144 36.1601 105.144 34.6081V33.7281C105.144 32.1441 105.144 30.5921 105.176 29.0721L106.84 28.8961ZM112.01 40.2241C113.978 40.2241 115.93 38.8161 115.93 35.9201C115.93 33.0081 113.946 31.5521 112.01 31.5521C110.026 31.5521 108.074 33.0081 108.074 35.9201C108.074 38.8161 110.026 40.2241 112.01 40.2241ZM112.01 39.5841C110.394 39.5841 109.434 38.3201 109.434 35.9201C109.434 33.5361 110.394 32.1921 112.01 32.1921C113.61 32.1921 114.586 33.5361 114.586 35.9201C114.586 38.3201 113.61 39.5841 112.01 39.5841ZM119.91 31.7281L119.686 31.5681L117.382 32.4161V32.9281L118.806 33.0401C118.838 33.7921 118.87 34.4481 118.87 35.4721V36.3521C118.87 37.1681 118.854 38.4001 118.822 39.2961L117.51 39.4881V40.0001H121.59V39.4881L120.118 39.2801C120.102 38.3841 120.086 37.1681 120.086 36.3521V34.8961C120.486 33.7921 120.998 33.0561 121.75 32.5601L121.974 32.7521C122.294 33.0241 122.598 33.2161 122.998 33.2161C123.622 33.2161 123.894 32.8161 123.894 32.1281C123.718 31.7761 123.19 31.5521 122.678 31.5521C121.67 31.5521 120.646 32.4161 120.07 33.8241L119.91 31.7281ZM125.933 35.1841C126.125 33.1521 127.293 32.1921 128.461 32.1921C129.693 32.1921 130.541 33.2001 130.541 34.3201C130.541 34.8321 130.381 35.1841 129.677 35.1841H125.933ZM131.629 35.8081C131.709 35.5681 131.741 35.2321 131.741 34.8161C131.741 32.8161 130.397 31.5521 128.541 31.5521C126.429 31.5521 124.621 33.2641 124.621 35.9361C124.621 38.6721 126.237 40.2241 128.477 40.2241C129.965 40.2241 131.069 39.4881 131.725 38.3361L131.389 38.0801C130.765 38.8321 130.013 39.3281 128.877 39.3281C127.181 39.3281 125.933 38.1601 125.917 35.7921L131.629 35.8081Z" fill="black"/>
<rect x="20.5" y="16.5001" width="135" height="33" rx="9.5" stroke="#9B9B9B"/>
</g>
<defs>
<filter id="filter0_bd" x="0" y="0.00012207" width="176" height="74" filterUnits="userSpaceOnUse" color-interpolation-filters="sRGB">
<feFlood flood-opacity="0" result="BackgroundImageFix"/>
<feGaussianBlur in="BackgroundImage" stdDeviation="2.5"/>
<feComposite in2="SourceAlpha" operator="in" result="effect1_backgroundBlur"/>
<feColorMatrix in="SourceAlpha" type="matrix" values="0 0 0 0 0 0 0 0 0 0 0 0 0 0 0 0 0 0 127 0"/>
<feOffset dy="4"/>
<feGaussianBlur stdDeviation="10"/>
<feColorMatrix type="matrix" values="0 0 0 0 0 0 0 0 0 0 0 0 0 0 0 0 0 0 0.25 0"/>
<feBlend mode="normal" in2="effect1_backgroundBlur" result="effect2_dropShadow"/>
<feBlend mode="normal" in="SourceGraphic" in2="effect2_dropShadow" result="shape"/>
</filter>
</defs>
</svg>
