<svg width="948" height="64" viewBox="0 0 948 64" fill="none" xmlns="http://www.w3.org/2000/svg">
<g filter="url(#filter0_bd)">
<rect x="0.5" y="1" width="947" height="62" rx="9.5" fill="#CA851E" stroke="#9B9B9B"/>
<path d="M432.857 36.62L432.217 39.7H426.937C426.877 37.8 426.877 35.88 426.877 34.26V32.86C426.877 30.82 426.877 28.86 426.937 26.94L429.017 26.72V26.02H423.077V26.72L425.157 26.94C425.217 28.84 425.217 30.78 425.217 32.76V33.88C425.217 35.8 425.217 37.74 425.157 39.66L423.077 39.88V40.6H433.737L433.917 36.62H432.857ZM440.77 40.88C443.23 40.88 445.67 39.12 445.67 35.5C445.67 31.86 443.19 30.04 440.77 30.04C438.29 30.04 435.85 31.86 435.85 35.5C435.85 39.12 438.29 40.88 440.77 40.88ZM440.77 40.08C438.75 40.08 437.55 38.5 437.55 35.5C437.55 32.52 438.75 30.84 440.77 30.84C442.77 30.84 443.99 32.52 443.99 35.5C443.99 38.5 442.77 40.08 440.77 40.08ZM453.905 38.32C452.625 39.34 452.045 39.7 451.205 39.7C450.125 39.7 449.365 39.16 449.365 37.96C449.365 37.16 449.725 36.32 451.665 35.58C452.205 35.36 453.085 35.08 453.905 34.86V38.32ZM457.185 39.42C456.885 39.74 456.645 39.9 456.285 39.9C455.745 39.9 455.425 39.54 455.425 38.38V33.64C455.425 31.04 454.345 30.04 452.125 30.04C450.005 30.04 448.445 31.02 448.025 32.66C448.065 33.14 448.405 33.42 448.905 33.42C449.425 33.42 449.725 33.12 449.885 32.54L450.325 31.06C450.845 30.88 451.305 30.84 451.725 30.84C453.245 30.84 453.905 31.38 453.905 33.58V34.22C452.985 34.42 452.025 34.7 451.245 34.94C448.525 35.92 447.745 36.9 447.745 38.24C447.745 39.96 449.025 40.88 450.625 40.88C451.925 40.88 452.725 40.3 453.945 39.06C454.125 40.16 454.765 40.84 455.785 40.84C456.485 40.84 457.045 40.56 457.525 39.84L457.185 39.42ZM466.26 38.48C465.36 39.5 464.6 39.88 463.58 39.88C461.76 39.88 460.38 38.54 460.38 35.52C460.38 32.36 461.88 31.04 463.64 31.04C464.44 31.04 465.26 31.34 466.26 32.28V38.48ZM467.78 39.74V27.7L467.84 24.64L467.56 24.46L464.44 25.3V25.92L466.32 26.08V31.5C465.38 30.4 464.38 30.04 463.4 30.04C460.72 30.04 458.76 32.2 458.76 35.56C458.76 38.68 460.56 40.88 463.18 40.88C464.52 40.88 465.5 40.3 466.3 39.28L466.42 40.8L469.7 40.6V39.96L467.78 39.74ZM493.78 26.72V26.02H489.82L484.9 38.42L479.8 26.02H476.08V26.72L478.1 26.96L478.08 39.64L476.14 39.88V40.6H480.96V39.88L479.02 39.64V32.54C479.02 32.52 478.96 29.88 478.92 27.98L484.16 40.6H484.98L490.02 27.9L490 33.92C489.98 35.82 490 37.76 489.96 39.68L488 39.88V40.6H493.78V39.88L491.7 39.68C491.66 37.74 491.66 35.8 491.66 33.86V32.76C491.66 30.78 491.66 28.84 491.7 26.94L493.78 26.72ZM500.243 40.88C502.703 40.88 505.143 39.12 505.143 35.5C505.143 31.86 502.663 30.04 500.243 30.04C497.763 30.04 495.323 31.86 495.323 35.5C495.323 39.12 497.763 40.88 500.243 40.88ZM500.243 40.08C498.223 40.08 497.023 38.5 497.023 35.5C497.023 32.52 498.223 30.84 500.243 30.84C502.243 30.84 503.463 32.52 503.463 35.5C503.463 38.5 502.243 40.08 500.243 40.08ZM510.118 30.26L509.838 30.06L506.958 31.12V31.76L508.738 31.9C508.778 32.84 508.818 33.66 508.818 34.94V36.04C508.818 37.06 508.798 38.6 508.758 39.72L507.118 39.96V40.6H512.218V39.96L510.378 39.7C510.358 38.58 510.338 37.06 510.338 36.04V34.22C510.838 32.84 511.478 31.92 512.418 31.3L512.698 31.54C513.098 31.88 513.478 32.12 513.978 32.12C514.758 32.12 515.098 31.62 515.098 30.76C514.878 30.32 514.218 30.04 513.578 30.04C512.318 30.04 511.038 31.12 510.318 32.88L510.118 30.26ZM517.646 34.58C517.886 32.04 519.346 30.84 520.806 30.84C522.346 30.84 523.406 32.1 523.406 33.5C523.406 34.14 523.206 34.58 522.326 34.58H517.646ZM524.766 35.36C524.866 35.06 524.906 34.64 524.906 34.12C524.906 31.62 523.226 30.04 520.906 30.04C518.266 30.04 516.006 32.18 516.006 35.52C516.006 38.94 518.026 40.88 520.826 40.88C522.686 40.88 524.066 39.96 524.886 38.52L524.466 38.2C523.686 39.14 522.746 39.76 521.326 39.76C519.206 39.76 517.646 38.3 517.626 35.34L524.766 35.36Z" fill="black"/>
</g>
<defs>
<filter id="filter0_bd" x="-4" y="-3.5" width="956" height="75" filterUnits="userSpaceOnUse" color-interpolation-filters="sRGB">
<feFlood flood-opacity="0" result="BackgroundImageFix"/>
<feGaussianBlur in="BackgroundImage" stdDeviation="2"/>
<feComposite in2="SourceAlpha" operator="in" result="effect1_backgroundBlur"/>
<feColorMatrix in="SourceAlpha" type="matrix" values="0 0 0 0 0 0 0 0 0 0 0 0 0 0 0 0 0 0 127 0"/>
<feOffset dy="4"/>
<feGaussianBlur stdDeviation="2"/>
<feColorMatrix type="matrix" values="0 0 0 0 0 0 0 0 0 0 0 0 0 0 0 0 0 0 0.25 0"/>
<feBlend mode="normal" in2="effect1_backgroundBlur" result="effect2_dropShadow"/>
<feBlend mode="normal" in="SourceGraphic" in2="effect2_dropShadow" result="shape"/>
</filter>
</defs>
</svg>
