<svg width="18" height="18" viewBox="0 0 18 18" fill="none" xmlns="http://www.w3.org/2000/svg">
<path d="M6.73503 0.875031C8.3871 0.875031 9.97152 1.53132 11.1397 2.69951C12.3079 3.86771 12.9642 5.45212 12.9642 7.1042C12.9642 8.64711 12.3988 10.0654 11.4692 11.1579L11.7279 11.4167H12.485L17.2767 16.2084L15.8392 17.6459L11.0475 12.8542V12.0971L10.7888 11.8384C9.65847 12.8032 8.22112 13.3333 6.73503 13.3334C5.08295 13.3334 3.49854 12.6771 2.33034 11.5089C1.16214 10.3407 0.505859 8.75628 0.505859 7.1042C0.505859 5.45212 1.16214 3.86771 2.33034 2.69951C3.49854 1.53132 5.08295 0.875031 6.73503 0.875031ZM6.73503 2.7917C4.33919 2.7917 2.42253 4.70836 2.42253 7.1042C2.42253 9.50003 4.33919 11.4167 6.73503 11.4167C9.13086 11.4167 11.0475 9.50003 11.0475 7.1042C11.0475 4.70836 9.13086 2.7917 6.73503 2.7917Z" fill="#CA851E"/>
</svg>
