<svg width="24" height="23" viewBox="0 0 24 23" fill="none" xmlns="http://www.w3.org/2000/svg">
<path d="M9.73503 2.875C11.3871 2.875 12.9715 3.53129 14.1397 4.69948C15.3079 5.86768 15.9642 7.45209 15.9642 9.10417C15.9642 10.6471 15.3988 12.0654 14.4692 13.1579L14.7279 13.4167H15.485L20.2767 18.2083L18.8392 19.6458L14.0475 14.8542V14.0971L13.7888 13.8383C12.6585 14.8032 11.2211 15.3332 9.73503 15.3333C8.08295 15.3333 6.49854 14.677 5.33034 13.5089C4.16214 12.3407 3.50586 10.7562 3.50586 9.10417C3.50586 7.45209 4.16214 5.86768 5.33034 4.69948C6.49854 3.53129 8.08295 2.875 9.73503 2.875ZM9.73503 4.79167C7.33919 4.79167 5.42253 6.70833 5.42253 9.10417C5.42253 11.5 7.33919 13.4167 9.73503 13.4167C12.1309 13.4167 14.0475 11.5 14.0475 9.10417C14.0475 6.70833 12.1309 4.79167 9.73503 4.79167Z" fill="#CA851E"/>
</svg>
