<svg width="17" height="17" viewBox="0 0 17 17" fill="none" xmlns="http://www.w3.org/2000/svg">
<path d="M6.22917 0C7.88124 0 9.46566 0.656285 10.6339 1.82448C11.802 2.99268 12.4583 4.57709 12.4583 6.22917C12.4583 7.77208 11.8929 9.19042 10.9633 10.2829L11.2221 10.5417H11.9792L16.7708 15.3333L15.3333 16.7708L10.5417 11.9792V11.2221L10.2829 10.9633C9.15261 11.9282 7.71526 12.4582 6.22917 12.4583C4.57709 12.4583 2.99268 11.802 1.82448 10.6339C0.656285 9.46566 0 7.88124 0 6.22917C0 4.57709 0.656285 2.99268 1.82448 1.82448C2.99268 0.656285 4.57709 0 6.22917 0V0ZM6.22917 1.91667C3.83333 1.91667 1.91667 3.83333 1.91667 6.22917C1.91667 8.625 3.83333 10.5417 6.22917 10.5417C8.625 10.5417 10.5417 8.625 10.5417 6.22917C10.5417 3.83333 8.625 1.91667 6.22917 1.91667Z" fill="#A16B19"/>
</svg>
