<svg width="30" height="21" viewBox="0 0 30 21" fill="none" xmlns="http://www.w3.org/2000/svg">
<path d="M29.6642 3.01384C28.579 3.40298 27.4133 3.66591 26.1877 3.78476C27.4523 3.17243 28.3983 2.2087 28.8493 1.0734C27.6613 1.64448 26.361 2.04645 25.0051 2.26185C24.0933 1.47397 22.8855 0.951742 21.5694 0.776259C20.2532 0.600776 18.9023 0.781851 17.7263 1.29137C16.5503 1.80089 15.6151 2.61036 15.0659 3.59408C14.5166 4.57781 14.3841 5.68076 14.6888 6.7317C12.2815 6.63388 9.92655 6.12753 7.77673 5.24551C5.62692 4.36348 3.73029 3.12549 2.20996 1.61188C1.69011 2.33758 1.3912 3.17896 1.3912 4.07503C1.39062 4.8817 1.63609 5.67602 2.10583 6.3875C2.57557 7.09899 3.25505 7.70564 4.08399 8.15364C3.12264 8.12888 2.1825 7.91866 1.34182 7.54048V7.60358C1.34172 8.73497 1.82531 9.83154 2.71054 10.7072C3.59577 11.5829 4.82811 12.1838 6.19846 12.4079C5.30664 12.6032 4.37164 12.632 3.46408 12.492C3.85071 13.4655 4.60383 14.3168 5.61801 14.9267C6.63219 15.5366 7.85665 15.8746 9.11998 15.8933C6.97541 17.2557 4.32687 17.9948 1.60044 17.9915C1.11748 17.9916 0.634928 17.9688 0.155273 17.9231C2.92276 19.3631 6.14432 20.1274 9.43448 20.1244C20.5721 20.1244 26.6608 12.6592 26.6608 6.1848C26.6608 5.97445 26.6543 5.76201 26.6426 5.55166C27.8269 4.85854 28.8492 4.00025 29.6616 3.01699L29.6642 3.01384V3.01384Z" fill="#CA851E"/>
</svg>
