<svg width="30" height="20" viewBox="0 0 30 20" fill="none" xmlns="http://www.w3.org/2000/svg">
<path d="M29.6642 2.69816C28.579 3.0873 27.4133 3.35024 26.1877 3.46908C27.4523 2.85676 28.3983 1.89303 28.8493 0.757726C27.6613 1.3288 26.361 1.73078 25.0051 1.94618C24.0933 1.15829 22.8855 0.636068 21.5694 0.460585C20.2532 0.285102 18.9023 0.466177 17.7263 0.975699C16.5503 1.48522 15.6151 2.29468 15.0659 3.27841C14.5166 4.26213 14.3841 5.36509 14.6888 6.41603C12.2815 6.31821 9.92655 5.81186 7.77673 4.92983C5.62692 4.04781 3.73029 2.80982 2.20996 1.29621C1.69011 2.0219 1.3912 2.86329 1.3912 3.75936C1.39062 4.56603 1.63609 5.36034 2.10583 6.07183C2.57557 6.78331 3.25505 7.38997 4.08399 7.83796C3.12264 7.81321 2.1825 7.60299 1.34182 7.2248V7.28791C1.34172 8.4193 1.82531 9.51587 2.71054 10.3916C3.59577 11.2672 4.82811 11.8681 6.19846 12.0922C5.30664 12.2875 4.37164 12.3163 3.46408 12.1763C3.85071 13.1498 4.60383 14.0011 5.61801 14.611C6.63219 15.2209 7.85665 15.5589 9.11998 15.5776C6.97541 16.9401 4.32687 17.6791 1.60044 17.6758C1.11748 17.6759 0.634928 17.6531 0.155273 17.6075C2.92276 19.0475 6.14432 19.8117 9.43448 19.8087C20.5721 19.8087 26.6608 12.3436 26.6608 5.86913C26.6608 5.65878 26.6543 5.44633 26.6426 5.23599C27.8269 4.54287 28.8492 3.68458 29.6616 2.70132L29.6642 2.69816V2.69816Z" fill="#A16B19"/>
</svg>
