<svg width="31" height="21" viewBox="0 0 31 21" fill="none" xmlns="http://www.w3.org/2000/svg">
<path d="M30.2887 3.01384C29.2035 3.40298 28.0378 3.66591 26.8123 3.78476C28.0768 3.17243 29.0228 2.2087 29.4739 1.0734C28.2858 1.64448 26.9856 2.04645 25.6296 2.26185C24.7178 1.47397 23.51 0.951742 22.1939 0.776259C20.8777 0.600776 19.5268 0.781851 18.3508 1.29137C17.1748 1.80089 16.2396 2.61036 15.6904 3.59408C15.1412 4.57781 15.0086 5.68076 15.3133 6.7317C12.906 6.63388 10.5511 6.12753 8.40125 5.24551C6.25143 4.36348 4.3548 3.12549 2.83447 1.61188C2.31462 2.33758 2.01571 3.17896 2.01571 4.07503C2.01513 4.8817 2.2606 5.67602 2.73034 6.3875C3.20008 7.09899 3.87956 7.70564 4.7085 8.15364C3.74715 8.12888 2.80701 7.91866 1.96633 7.54048V7.60358C1.96623 8.73497 2.44983 9.83154 3.33505 10.7072C4.22028 11.5829 5.45262 12.1838 6.82297 12.4079C5.93116 12.6032 4.99616 12.632 4.08859 12.492C4.47522 13.4655 5.22834 14.3168 6.24252 14.9267C7.2567 15.5366 8.48116 15.8746 9.74449 15.8933C7.59992 17.2557 4.95138 17.9948 2.22495 17.9915C1.74199 17.9916 1.25944 17.9688 0.779785 17.9231C3.54727 19.3631 6.76883 20.1274 10.059 20.1244C21.1966 20.1244 27.2853 12.6592 27.2853 6.1848C27.2853 5.97445 27.2788 5.76201 27.2671 5.55166C28.4514 4.85854 29.4737 4.00025 30.2861 3.01699L30.2887 3.01384V3.01384Z" fill="#614010"/>
</svg>
