<svg width="32" height="17" viewBox="0 0 32 17" fill="none" xmlns="http://www.w3.org/2000/svg">
<path d="M30.6271 3.42148C30.45 2.94309 30.105 2.50998 29.6288 2.16819C29.1391 1.81589 28.539 1.56388 27.885 1.43595C25.4374 0.947459 15.6312 0.94746 15.6312 0.94746C11.5432 0.912242 7.45614 1.06714 3.39316 1.41128C2.73915 1.54866 2.14011 1.8063 1.64933 2.16128C1.16711 2.5126 0.817819 2.94582 0.635355 3.42049C0.197043 5.20841 -0.0159196 7.02381 -0.000660462 8.84222C-0.0163002 10.659 0.196139 12.4738 0.635355 14.264C0.813909 14.7367 1.16189 15.1679 1.64542 15.5163C2.12895 15.8646 2.73108 16.1163 3.39316 16.2495C5.87336 16.737 15.6312 16.737 15.6312 16.737C19.7245 16.7723 23.8168 16.6174 27.885 16.2732C28.539 16.1452 29.1391 15.8932 29.6288 15.5409C30.111 15.1926 30.4538 14.7593 30.6258 14.2876C31.0756 12.5004 31.2943 10.6843 31.2788 8.86492C31.3126 7.03788 31.0942 5.21316 30.6271 3.42049V3.42148ZM12.5137 12.2212V5.46425L20.6725 8.84321L12.5137 12.2212Z" fill="#614010"/>
</svg>
