<svg width="32" height="17" viewBox="0 0 32 17" fill="none" xmlns="http://www.w3.org/2000/svg">
<path d="M31.0026 3.10581C30.8255 2.62742 30.4805 2.1943 30.0043 1.85251C29.5146 1.50021 28.9145 1.2482 28.2605 1.12027C25.8128 0.631786 16.0067 0.631786 16.0067 0.631786C11.9187 0.596568 7.83163 0.751465 3.76865 1.0956C3.11463 1.23298 2.5156 1.49062 2.02482 1.84561C1.54259 2.19692 1.19331 2.63015 1.01084 3.10482C0.572531 4.89273 0.359569 6.70813 0.374828 8.52655C0.359188 10.3433 0.571628 12.1581 1.01084 13.9483C1.1894 14.421 1.53738 14.8522 2.02091 15.2006C2.50444 15.5489 3.10657 15.8006 3.76865 15.9338C6.24885 16.4213 16.0067 16.4213 16.0067 16.4213C20.1 16.4566 24.1923 16.3017 28.2605 15.9575C28.9145 15.8296 29.5146 15.5776 30.0043 15.2253C30.4865 14.8769 30.8293 14.4437 31.0013 13.972C31.4511 12.1847 31.6698 10.3686 31.6543 8.54925C31.6881 6.72221 31.4697 4.89749 31.0026 3.10482V3.10581ZM12.8892 11.9055V5.14858L21.0479 8.52754L12.8892 11.9055Z" fill="#A16B19"/>
</svg>
