<svg width="32" height="17" viewBox="0 0 32 17" fill="none" xmlns="http://www.w3.org/2000/svg">
<path d="M31.0026 3.42148C30.8255 2.94309 30.4805 2.50998 30.0043 2.16819C29.5146 1.81589 28.9145 1.56388 28.2605 1.43595C25.8128 0.947459 16.0067 0.94746 16.0067 0.94746C11.9187 0.912242 7.83163 1.06714 3.76865 1.41128C3.11463 1.54866 2.5156 1.8063 2.02482 2.16128C1.54259 2.5126 1.19331 2.94582 1.01084 3.42049C0.572531 5.20841 0.359569 7.02381 0.374828 8.84222C0.359188 10.659 0.571628 12.4738 1.01084 14.264C1.1894 14.7367 1.53738 15.1679 2.02091 15.5163C2.50444 15.8646 3.10657 16.1163 3.76865 16.2495C6.24885 16.737 16.0067 16.737 16.0067 16.737C20.1 16.7723 24.1923 16.6174 28.2605 16.2732C28.9145 16.1452 29.5146 15.8932 30.0043 15.5409C30.4865 15.1926 30.8293 14.7593 31.0013 14.2876C31.4511 12.5004 31.6698 10.6843 31.6543 8.86492C31.6881 7.03788 31.4697 5.21316 31.0026 3.42049V3.42148ZM12.8892 12.2212V5.46425L21.0479 8.84321L12.8892 12.2212Z" fill="#CA851E"/>
</svg>
